<svg viewBox="0 0 330 200" xmlns="http://www.w3.org/2000/svg"><g><g><g><g><g><line x1="39.98800086975098" y1="177.5999994277954" x2="34.98800086975098" y2="177.5999994277954" style="visibility: inherit;" fill="rgb(0, 0, 0)" stroke="rgb(204, 204, 204)" stroke-width="1px"></line><line x1="39.98800086975098" y1="162.79999947547913" x2="34.98800086975098" y2="162.79999947547913" style="visibility: inherit;" fill="rgb(0, 0, 0)" stroke="rgb(204, 204, 204)" stroke-width="1px"></line><line x1="39.98800086975098" y1="147.99999952316284" x2="34.98800086975098" y2="147.99999952316284" style="visibility: inherit;" fill="rgb(0, 0, 0)" stroke="rgb(204, 204, 204)" stroke-width="1px"></line><line x1="39.98800086975098" y1="133.19999957084656" x2="34.98800086975098" y2="133.19999957084656" style="visibility: inherit;" fill="rgb(0, 0, 0)" stroke="rgb(204, 204, 204)" stroke-width="1px"></line><line x1="39.98800086975098" y1="118.39999961853027" x2="34.98800086975098" y2="118.39999961853027" style="visibility: inherit;" fill="rgb(0, 0, 0)" stroke="rgb(204, 204, 204)" stroke-width="1px"></line><line x1="39.98800086975098" y1="103.59999966621398" x2="34.98800086975098" y2="103.59999966621398" style="visibility: inherit;" fill="rgb(0, 0, 0)" stroke="rgb(204, 204, 204)" stroke-width="1px"></line><line x1="39.98800086975098" y1="88.7999997138977" x2="34.98800086975098" y2="88.7999997138977" style="visibility: inherit;" fill="rgb(0, 0, 0)" stroke="rgb(204, 204, 204)" stroke-width="1px"></line><line x1="39.98800086975098" y1="73.99999976158142" x2="34.98800086975098" y2="73.99999976158142" style="visibility: inherit;" fill="rgb(0, 0, 0)" stroke="rgb(204, 204, 204)" stroke-width="1px"></line><line x1="39.98800086975098" y1="59.19999980926512" x2="34.98800086975098" y2="59.19999980926512" style="visibility: inherit;" fill="rgb(0, 0, 0)" stroke="rgb(204, 204, 204)" stroke-width="1px"></line><line x1="39.98800086975098" y1="44.39999985694885" x2="34.98800086975098" y2="44.39999985694885" style="visibility: inherit;" fill="rgb(0, 0, 0)" stroke="rgb(204, 204, 204)" stroke-width="1px"></line><line x1="39.98800086975098" y1="29.59999990463256" x2="34.98800086975098" y2="29.59999990463256" style="visibility: inherit;" fill="rgb(0, 0, 0)" stroke="rgb(204, 204, 204)" stroke-width="1px"></line><line x1="39.98800086975098" y1="14.799999952316272" x2="34.98800086975098" y2="14.799999952316272" style="visibility: inherit;" fill="rgb(0, 0, 0)" stroke="rgb(204, 204, 204)" stroke-width="1px"></line><line x1="39.98800086975098" y1="0" x2="34.98800086975098" y2="0" style="visibility: inherit;" fill="rgb(0, 0, 0)" stroke="rgb(204, 204, 204)" stroke-width="1px"></line></g><g transform="translate(29.988000869750977, 0)"><text style="text-anchor: end; visibility: hidden; font-family: Roboto, sans-serif; font-size: 12px; font-weight: 200;" x="0" y="177.5999994277954" dx="0em" dy="0.3em" fill="rgb(255, 255, 255)" stroke="none" stroke-width="1px">0</text><text style="text-anchor: end; visibility: inherit; font-family: Roboto, sans-serif; font-size: 12px; font-weight: 200;" x="0" y="162.79999947547913" dx="0em" dy="0.3em" fill="rgb(255, 255, 255)" stroke="none" stroke-width="1px">0.2</text><text style="text-anchor: end; visibility: hidden; font-family: Roboto, sans-serif; font-size: 12px; font-weight: 200;" x="0" y="147.99999952316284" dx="0em" dy="0.3em" fill="rgb(255, 255, 255)" stroke="none" stroke-width="1px">0.4</text><text style="text-anchor: end; visibility: inherit; font-family: Roboto, sans-serif; font-size: 12px; font-weight: 200;" x="0" y="133.19999957084656" dx="0em" dy="0.3em" fill="rgb(255, 255, 255)" stroke="none" stroke-width="1px">0.6</text><text style="text-anchor: end; visibility: hidden; font-family: Roboto, sans-serif; font-size: 12px; font-weight: 200;" x="0" y="118.39999961853027" dx="0em" dy="0.3em" fill="rgb(255, 255, 255)" stroke="none" stroke-width="1px">0.8</text><text style="text-anchor: end; visibility: inherit; font-family: Roboto, sans-serif; font-size: 12px; font-weight: 200;" x="0" y="103.59999966621398" dx="0em" dy="0.3em" fill="rgb(255, 255, 255)" stroke="none" stroke-width="1px">1</text><text style="text-anchor: end; visibility: hidden; font-family: Roboto, sans-serif; font-size: 12px; font-weight: 200;" x="0" y="88.7999997138977" dx="0em" dy="0.3em" fill="rgb(255, 255, 255)" stroke="none" stroke-width="1px">1.2</text><text style="text-anchor: end; visibility: inherit; font-family: Roboto, sans-serif; font-size: 12px; font-weight: 200;" x="0" y="73.99999976158142" dx="0em" dy="0.3em" fill="rgb(255, 255, 255)" stroke="none" stroke-width="1px">1.4</text><text style="text-anchor: end; visibility: hidden; font-family: Roboto, sans-serif; font-size: 12px; font-weight: 200;" x="0" y="59.19999980926512" dx="0em" dy="0.3em" fill="rgb(255, 255, 255)" stroke="none" stroke-width="1px">1.6</text><text style="text-anchor: end; visibility: inherit; font-family: Roboto, sans-serif; font-size: 12px; font-weight: 200;" x="0" y="44.39999985694885" dx="0em" dy="0.3em" fill="rgb(255, 255, 255)" stroke="none" stroke-width="1px">1.8</text><text style="text-anchor: end; visibility: hidden; font-family: Roboto, sans-serif; font-size: 12px; font-weight: 200;" x="0" y="29.59999990463256" dx="0em" dy="0.3em" fill="rgb(255, 255, 255)" stroke="none" stroke-width="1px">2</text><text style="text-anchor: end; visibility: inherit; font-family: Roboto, sans-serif; font-size: 12px; font-weight: 200;" x="0" y="14.799999952316272" dx="0em" dy="0.3em" fill="rgb(255, 255, 255)" stroke="none" stroke-width="1px">2.2</text><text style="text-anchor: end; visibility: hidden; font-family: Roboto, sans-serif; font-size: 12px; font-weight: 200;" x="0" y="0" dx="0em" dy="0.3em" fill="rgb(255, 255, 255)" stroke="none" stroke-width="1px">2.4</text></g><line x1="39.98800086975098" y1="0" x2="39.98800086975098" y2="177.5999994277954" fill="rgb(0, 0, 0)" stroke="rgb(204, 204, 204)" stroke-width="1px"></line></g></g><g transform="translate(39, 0)" clip-path="url(#clip_0)"><clipPath id="clip_0"><rect width="290" height="177"></rect></clipPath><g><g><g><line x1="0" y1="0" x2="0" y2="177.5999994277954" fill="rgb(0, 0, 0)" stroke="rgb(189, 189, 189)" stroke-width="1px" opacity="0.25"></line><line x1="32.22355545891656" y1="0" x2="32.22355545891656" y2="177.5999994277954" fill="rgb(0, 0, 0)" stroke="rgb(189, 189, 189)" stroke-width="1px" opacity="0.25"></line><line x1="64.44711091783311" y1="0" x2="64.44711091783311" y2="177.5999994277954" fill="rgb(0, 0, 0)" stroke="rgb(189, 189, 189)" stroke-width="1px" opacity="0.25"></line><line x1="96.67066637674967" y1="0" x2="96.67066637674967" y2="177.5999994277954" fill="rgb(0, 0, 0)" stroke="rgb(189, 189, 189)" stroke-width="1px" opacity="0.25"></line><line x1="128.89422183566623" y1="0" x2="128.89422183566623" y2="177.5999994277954" fill="rgb(0, 0, 0)" stroke="rgb(189, 189, 189)" stroke-width="1px" opacity="0.25"></line><line x1="161.1177772945828" y1="0" x2="161.1177772945828" y2="177.5999994277954" fill="rgb(0, 0, 0)" stroke="rgb(189, 189, 189)" stroke-width="1px" opacity="0.25"></line><line x1="193.34133275349933" y1="0" x2="193.34133275349933" y2="177.5999994277954" fill="rgb(0, 0, 0)" stroke="rgb(189, 189, 189)" stroke-width="1px" opacity="0.25"></line><line x1="225.56488821241592" y1="0" x2="225.56488821241592" y2="177.5999994277954" fill="rgb(0, 0, 0)" stroke="rgb(189, 189, 189)" stroke-width="1px" opacity="0.25"></line><line x1="257.78844367133246" y1="0" x2="257.78844367133246" y2="177.5999994277954" fill="rgb(0, 0, 0)" stroke="rgb(189, 189, 189)" stroke-width="1px" opacity="0.25"></line><line x1="290.011999130249" y1="0" x2="290.011999130249" y2="177.5999994277954" fill="rgb(0, 0, 0)" stroke="rgb(189, 189, 189)" stroke-width="1px" opacity="0.25"></line></g><g><line x1="0" y1="177.5999994277954" x2="290.011999130249" y2="177.5999994277954" fill="rgb(0, 0, 0)" stroke="rgb(189, 189, 189)" stroke-width="1px" opacity="0.25"></line><line x1="0" y1="162.79999947547913" x2="290.011999130249" y2="162.79999947547913" fill="rgb(0, 0, 0)" stroke="rgb(189, 189, 189)" stroke-width="1px" opacity="0.25"></line><line x1="0" y1="147.99999952316284" x2="290.011999130249" y2="147.99999952316284" fill="rgb(0, 0, 0)" stroke="rgb(189, 189, 189)" stroke-width="1px" opacity="0.25"></line><line x1="0" y1="133.19999957084656" x2="290.011999130249" y2="133.19999957084656" fill="rgb(0, 0, 0)" stroke="rgb(189, 189, 189)" stroke-width="1px" opacity="0.25"></line><line x1="0" y1="118.39999961853027" x2="290.011999130249" y2="118.39999961853027" fill="rgb(0, 0, 0)" stroke="rgb(189, 189, 189)" stroke-width="1px" opacity="0.25"></line><line x1="0" y1="103.59999966621398" x2="290.011999130249" y2="103.59999966621398" fill="rgb(0, 0, 0)" stroke="rgb(189, 189, 189)" stroke-width="1px" opacity="0.25"></line><line x1="0" y1="88.7999997138977" x2="290.011999130249" y2="88.7999997138977" fill="rgb(0, 0, 0)" stroke="rgb(189, 189, 189)" stroke-width="1px" opacity="0.25"></line><line x1="0" y1="73.99999976158142" x2="290.011999130249" y2="73.99999976158142" fill="rgb(0, 0, 0)" stroke="rgb(189, 189, 189)" stroke-width="1px" opacity="0.25"></line><line x1="0" y1="59.19999980926512" x2="290.011999130249" y2="59.19999980926512" fill="rgb(0, 0, 0)" stroke="rgb(189, 189, 189)" stroke-width="1px" opacity="0.25"></line><line x1="0" y1="44.39999985694885" x2="290.011999130249" y2="44.39999985694885" fill="rgb(0, 0, 0)" stroke="rgb(189, 189, 189)" stroke-width="1px" opacity="0.25"></line><line x1="0" y1="29.59999990463256" x2="290.011999130249" y2="29.59999990463256" fill="rgb(0, 0, 0)" stroke="rgb(189, 189, 189)" stroke-width="1px" opacity="0.25"></line><line x1="0" y1="14.799999952316272" x2="290.011999130249" y2="14.799999952316272" fill="rgb(0, 0, 0)" stroke="rgb(189, 189, 189)" stroke-width="1px" opacity="0.25"></line><line x1="0" y1="0" x2="290.011999130249" y2="0" fill="rgb(0, 0, 0)" stroke="rgb(189, 189, 189)" stroke-width="1px" opacity="0.25"></line></g></g></g><g><g><line x1="0" y1="177.5999994277954" x2="290.011999130249" y2="177.5999994277954" fill="rgb(0, 0, 0)" stroke="rgb(153, 153, 153)" stroke-width="1.5px"></line></g></g><g><g><line x1="32.22355545891656" y1="0" x2="32.22355545891656" y2="177.5999994277954" fill="rgb(0, 0, 0)" stroke="rgb(153, 153, 153)" stroke-width="1.5px"></line></g></g><g><g><g><g><g><path style="fill: none;" stroke="rgb(0, 119, 187)" stroke-width="2px" d="M32.22355545891656,7.516747068982668L35.44591100480821,7.995423028934881L38.66826655069987,8.817871452648484L41.89062209659152,10.1351315532945L45.11297764248318,11.72469450649581L48.33533318837483,13.452256379887048L51.55768873426649,15.468229706403983L54.780044280158144,17.7056608398749L58.00239982604981,20.3683306352986L61.22475537194146,23.34463076603882L64.44711091783311,26.604734442980014L67.66946646372477,30.12096221199081L70.89182200961642,33.72521381388063L74.11417755550808,37.50343786045835L77.33653310139974,41.179572312104035L80.5588886472914,44.90699894888212L83.78124419318304,48.40017658770177L87.0035997390747,52.04006292848862L90.22595528496636,55.53740352546411L93.44831083085802,58.71602914672741L96.67066637674967,61.98868400208741L99.89302192264132,64.96406183306459L103.11537746853298,67.72996655226434L106.33773301442463,70.3826796189888L109.56008856031629,72.82841236703277L112.78244410620796,75.25410620487247L116.00479965209962,77.50220894252692L119.22715519799127,79.54939965539812L122.44951074388293,81.518997252126L125.67186628977458,83.2070700197604L128.89422183566623,84.97679716067374L132.11657738155787,86.6975984560859L135.33893292744955,88.09806574577958L138.5612884733412,89.98721037272428L141.78364401923284,91.69255886616556L145.0059995651245,93.22940434542639L148.22835511101616,94.77304540001136L151.45071065690783,96.313766598453L154.67306620279948,97.67695186926764L157.89542174869112,98.91459998657149L161.1177772945828,100.33922744753679L164.34013284047444,101.54678579039877L167.56248838636608,102.51943571467879L170.78484393225776,103.69698876578228L174.0071994781494,104.9496218309545L177.22955502404108,106.22614544921501L180.45191056993272,107.15405565041198L183.67426611582437,108.23681471460014L186.89662166171604,109.08524472864688L190.11897720760768,109.88228195748611L193.34133275349933,110.74580569277695L196.563688299391,111.4895876959787L199.78604384528265,112.35520923724626L203.0083993911743,112.9985117098702L206.23075493706597,113.80848210656812L209.4531104829576,114.25971650572447L212.67546602884926,114.96511123660656L215.89782157474096,115.54805228299523L219.12017712063258,116.05709063010282L222.34253266652428,116.35146737184716L225.56488821241592,116.61831959000394L228.78724375830757,117.09885733626272L232.00959930419924,117.20963167144916L235.2319548500909,117.37252924420469L238.45431039598253,117.69360314861913L241.6766659418742,117.99454536346222L244.89902148776585,118.11321384388891L248.1213770336575,118.0253317569983L251.34373257954917,118.02663940807119L254.5660881254408,118.23778118721562L257.78844367133246,118.35920159102295L261.01079921722413,118.28930981711991L264.23315476311575,118.1399255076714L267.4555103090074,118.11670837202944L270.6778658548991,117.94166950199094L273.9002214007907,118.08061323545621L277.1225769466824,118.01849197676708L280.34493249257406,117.87666518861103L283.5672880384657,117.68243143792269" fill="none"></path></g><g><path style="fill: none;" stroke="rgb(255, 112, 67)" stroke-width="2px" d="M32.22355545891656,7.312547278685984L35.44591100480821,7.6653516403231885L38.66826655069987,8.387454519691017L41.89062209659152,9.57433772929263L45.11297764248318,11.265068273100157L48.33533318837483,13.211253884255617L51.55768873426649,15.447777242256775L54.780044280158144,17.94597053375432L58.00239982604981,20.792293505887578L61.22475537194146,24.091066081424145L64.44711091783311,27.767294347365187L67.66946646372477,31.731445611002794L70.89182200961642,36.01810589558444L74.11417755550808,40.385233138771596L77.33653310139974,44.75628389438917L80.5588886472914,49.068505543237784L83.78124419318304,53.473885560910496L87.0035997390747,57.67985322627654L90.22595528496636,61.98657159379898L93.44831083085802,65.90060479638518L96.67066637674967,69.67368399969457L99.89302192264132,73.21499141079188L103.11537746853298,76.62572438591766L106.33773301442463,79.9021715629547L109.56008856031629,82.95518254510498L112.78244410620796,85.90066297713874L116.00479965209962,88.84141170422194L119.22715519799127,91.62408864391003L122.44951074388293,94.22021840550022L125.67186628977458,96.60824127105855L128.89422183566623,98.95783314488858L132.11657738155787,101.1455850983587L135.33893292744955,103.50077899679775L138.5612884733412,105.61778469943127L141.78364401923284,107.75188694374732L145.0059995651245,109.91712581906174L148.22835511101616,112.0305859296295L151.45071065690783,113.92751406920708L154.67306620279948,116.15841858796928L157.89542174869112,118.05688580213123L161.1177772945828,119.86220720100044L164.34013284047444,121.60899466495697L167.56248838636608,123.3563993779853L170.78484393225776,125.14377233323158L174.0071994781494,126.92706508246506L177.22955502404108,128.6885888864399L180.45191056993272,130.31867049099537L183.67426611582437,131.9731299358395L186.89662166171604,133.72479049980794L190.11897720760768,135.21299563231628L193.34133275349933,136.65496632319122L196.563688299391,138.0405670938856L199.78604384528265,139.49887684074167L203.0083993911743,140.85293738003682L206.23075493706597,142.12130875120133L209.4531104829576,143.30695563411606L212.67546602884926,144.60368032795026L215.89782157474096,145.5965624698371L219.12017712063258,146.64200059675142L222.34253266652428,147.72814313298161L225.56488821241592,148.67809637588854L228.78724375830757,149.53704260582737L232.00959930419924,150.52137737471227L235.2319548500909,151.45150405377407L238.45431039598253,152.19253153481145L241.6766659418742,152.9954309698198L244.89902148776585,153.77453591383284L248.1213770336575,154.51869100753063L251.34373257954917,155.28147143722674L254.5660881254408,156.07632605431724L257.78844367133246,156.75574930003143L261.01079921722413,157.36169705194342L264.23315476311575,157.93102601450806L267.4555103090074,158.50925097001985L270.6778658548991,159.12317708092493L273.9002214007907,159.711116770713L277.1225769466824,160.23822493293162L280.34493249257406,160.7616536403253L283.5672880384657,161.2351199938675" fill="none"></path></g></g></g></g><g opacity="0.2"><g><g><g><path style="fill: none;" stroke="rgb(0, 119, 187)" stroke-width="2px" d="M32.22355545891656,7.516747068982668L35.44591100480821,8.28262860490621L38.66826655069987,9.607421939413534L41.89062209659152,11.684229431654217L45.11297764248318,13.80002789819553L48.33533318837483,15.842096373061553L51.55768873426649,18.35110381889632L54.780044280158144,20.96785691181435L58.00239982604981,24.295251386567536L61.22475537194146,27.764089590265655L64.44711091783311,31.465321057985527L67.66946646372477,35.376168709264675L70.89182200961642,39.119822709883145L74.11417755550808,43.16337199609545L77.33653310139974,46.68945283152137L80.5588886472914,50.49551003399567L83.78124419318304,53.63846485022446L87.0035997390747,57.498968272921296L90.22595528496636,60.78288163628808L93.44831083085802,63.483677039650075L96.67066637674967,66.89748680495737L99.89302192264132,69.42703067345545L103.11537746853298,71.87876902310019L106.33773301442463,74.36171779516026L109.56008856031629,76.49699410587712L112.78244410620796,78.89263661715586L116.00479965209962,80.87435729672985L119.22715519799127,82.62018258178497L122.44951074388293,84.47339183294001L125.67186628977458,85.73917823823987L128.89422183566623,87.63138728518297L132.11657738155787,89.27880005682223L135.33893292744955,90.1987665131325L138.5612884733412,92.82092717782572L141.78364401923284,94.25058153303705L145.0059995651245,95.53467252468846L148.22835511101616,97.08850695800618L151.45071065690783,98.624848381813L154.67306620279948,99.7217297678969L157.89542174869112,100.77107215839118L161.1177772945828,102.47616863612816L164.34013284047444,103.35812330323901L167.56248838636608,103.97841060039671L170.78484393225776,105.46331834192753L174.0071994781494,106.8285714283873L177.22955502404108,108.14093087640667L180.45191056993272,108.5459209521206L183.67426611582437,109.86095331082166L186.89662166171604,110.35788974968843L190.11897720760768,111.07783780072882L193.34133275349933,112.04109129570273L196.563688299391,112.60526070077591L199.78604384528265,113.65364154914379L203.0083993911743,113.96346541880445L206.23075493706597,115.0234377016137L209.4531104829576,114.93656810445859L212.67546602884926,116.02320333292934L215.89782157474096,116.42246385257803L219.12017712063258,116.82064815076413L222.34253266652428,116.79303248446364L225.56488821241592,117.01859791723909L228.78724375830757,117.8196639556509L232.00959930419924,117.37579317422882L235.2319548500909,117.61687560333793L238.45431039598253,118.17521400524083L241.6766659418742,118.44595868572686L244.89902148776585,118.29121656452894L248.1213770336575,117.89350862666235L251.34373257954917,118.02860088468049L254.5660881254408,118.5544938559323L257.78844367133246,118.54133219673396L261.01079921722413,118.18447215626537L264.23315476311575,117.91584904349865L267.4555103090074,118.08188266856642L270.6778658548991,117.6791111969332L273.9002214007907,118.28902883565416L277.1225769466824,117.92531008873337L280.34493249257406,117.66392500637697L283.5672880384657,117.39108081189012" fill="none"></path></g><g><path style="fill: none;" stroke="rgb(255, 112, 67)" stroke-width="2px" d="M32.22355545891656,7.312547278685984L35.44591100480821,7.877034257305511L38.66826655069987,9.080673283884089L41.89062209659152,10.970112383784112L45.11297764248318,13.472486071095318L48.33533318837483,15.903529211303571L51.55768873426649,18.646041428572282L54.780044280158144,21.588360335413306L58.00239982604981,24.990067020010073L61.22475537194146,28.98935890394494L64.44711091783311,33.24829362647503L67.66946646372477,37.65609977033943L70.89182200961642,42.43409963287501L74.11417755550808,46.9273683466545L77.33653310139974,51.30772202173529L80.5588886472914,55.533796703706564L83.78124419318304,60.08009137823744L87.0035997390747,63.98773682959099L90.22595528496636,68.44599305988649L93.44831083085802,71.77129684212626L96.67066637674967,75.33309588002804L99.89302192264132,78.52683599920906L103.11537746853298,81.74175650963345L106.33773301442463,84.81680351586985L109.56008856031629,87.53467731883501L112.78244410620796,90.31887106406086L116.00479965209962,93.2525272702767L119.22715519799127,95.79809978137757L122.44951074388293,98.11441065648307L125.67186628977458,100.19027424957213L128.89422183566623,102.48222017648341L132.11657738155787,104.42721259327445L135.33893292744955,107.03356956329355L138.5612884733412,108.79329310174472L141.78364401923284,110.95304021850457L145.0059995651245,113.16498407620034L148.22835511101616,115.20077606278245L151.45071065690783,116.77290626096433L154.67306620279948,119.50477535368695L157.89542174869112,120.90458661702972L161.1177772945828,122.57018929568434L164.34013284047444,124.22917585879024L167.56248838636608,125.97750644626647L170.78484393225776,127.82483176532683L174.0071994781494,129.60200420585193L177.22955502404108,131.33087459212743L180.45191056993272,132.76379289767615L183.67426611582437,134.4548191030128L186.89662166171604,136.35228134570158L190.11897720760768,137.44530333104873L193.34133275349933,138.81792235948612L196.563688299391,140.11896824991712L199.78604384528265,141.68634146101945L203.0083993911743,142.88402818897598L206.23075493706597,144.0238658079461L209.4531104829576,145.08542595848706L212.67546602884926,146.5487673687008L215.89782157474096,147.085885682667L219.12017712063258,148.2101577871227L222.34253266652428,149.35735693732676L225.56488821241592,150.10302624024885L228.78724375830757,150.8254619507356L232.00959930419924,151.9978795280396L235.2319548500909,152.84669407236674L238.45431039598253,153.30407275636753L241.6766659418742,154.19978012233236L244.89902148776585,154.94319332985233L248.1213770336575,155.63492364807732L251.34373257954917,156.4256420817709L254.5660881254408,157.26860797995295L257.78844367133246,157.7748841686027L261.01079921722413,158.27061867981143L264.23315476311575,158.78501945835507L267.4555103090074,159.37658840328749L270.6778658548991,160.0440662472826L273.9002214007907,160.5930263053951L277.1225769466824,161.0288871762595L280.34493249257406,161.54679670141581L283.5672880384657,161.94531952418083" fill="none"></path></g></g></g></g></g></g><g transform="translate(39, 177)" clip-path="url(#clip_1)"><clipPath id="clip_1"><rect width="290" height="22"></rect></clipPath><g><g><line x1="0" y1="0" x2="0" y2="5" style="visibility: inherit;" fill="rgb(0, 0, 0)" stroke="rgb(204, 204, 204)" stroke-width="1px"></line><line x1="32.22355545891656" y1="0" x2="32.22355545891656" y2="5" style="visibility: inherit;" fill="rgb(0, 0, 0)" stroke="rgb(204, 204, 204)" stroke-width="1px"></line><line x1="64.44711091783311" y1="0" x2="64.44711091783311" y2="5" style="visibility: inherit;" fill="rgb(0, 0, 0)" stroke="rgb(204, 204, 204)" stroke-width="1px"></line><line x1="96.67066637674967" y1="0" x2="96.67066637674967" y2="5" style="visibility: inherit;" fill="rgb(0, 0, 0)" stroke="rgb(204, 204, 204)" stroke-width="1px"></line><line x1="128.89422183566623" y1="0" x2="128.89422183566623" y2="5" style="visibility: inherit;" fill="rgb(0, 0, 0)" stroke="rgb(204, 204, 204)" stroke-width="1px"></line><line x1="161.1177772945828" y1="0" x2="161.1177772945828" y2="5" style="visibility: inherit;" fill="rgb(0, 0, 0)" stroke="rgb(204, 204, 204)" stroke-width="1px"></line><line x1="193.34133275349933" y1="0" x2="193.34133275349933" y2="5" style="visibility: inherit;" fill="rgb(0, 0, 0)" stroke="rgb(204, 204, 204)" stroke-width="1px"></line><line x1="225.56488821241592" y1="0" x2="225.56488821241592" y2="5" style="visibility: inherit;" fill="rgb(0, 0, 0)" stroke="rgb(204, 204, 204)" stroke-width="1px"></line><line x1="257.78844367133246" y1="0" x2="257.78844367133246" y2="5" style="visibility: inherit;" fill="rgb(0, 0, 0)" stroke="rgb(204, 204, 204)" stroke-width="1px"></line><line x1="290.011999130249" y1="0" x2="290.011999130249" y2="5" style="visibility: inherit;" fill="rgb(0, 0, 0)" stroke="rgb(204, 204, 204)" stroke-width="1px"></line></g><g transform="translate(0, 8)"><text style="text-anchor: middle; visibility: hidden; font-family: Roboto, sans-serif; font-size: 12px; font-weight: 200;" x="0" y="0" dx="0em" dy="0.95em" fill="rgb(255, 255, 255)" stroke="none" stroke-width="1px">-10</text><text style="text-anchor: middle; visibility: inherit; font-family: Roboto, sans-serif; font-size: 12px; font-weight: 200;" x="32.22355545891656" y="0" dx="0em" dy="0.95em" fill="rgb(255, 255, 255)" stroke="none" stroke-width="1px">0</text><text style="text-anchor: middle; visibility: inherit; font-family: Roboto, sans-serif; font-size: 12px; font-weight: 200;" x="64.44711091783311" y="0" dx="0em" dy="0.95em" fill="rgb(255, 255, 255)" stroke="none" stroke-width="1px">10</text><text style="text-anchor: middle; visibility: inherit; font-family: Roboto, sans-serif; font-size: 12px; font-weight: 200;" x="96.67066637674967" y="0" dx="0em" dy="0.95em" fill="rgb(255, 255, 255)" stroke="none" stroke-width="1px">20</text><text style="text-anchor: middle; visibility: inherit; font-family: Roboto, sans-serif; font-size: 12px; font-weight: 200;" x="128.89422183566623" y="0" dx="0em" dy="0.95em" fill="rgb(255, 255, 255)" stroke="none" stroke-width="1px">30</text><text style="text-anchor: middle; visibility: inherit; font-family: Roboto, sans-serif; font-size: 12px; font-weight: 200;" x="161.1177772945828" y="0" dx="0em" dy="0.95em" fill="rgb(255, 255, 255)" stroke="none" stroke-width="1px">40</text><text style="text-anchor: middle; visibility: inherit; font-family: Roboto, sans-serif; font-size: 12px; font-weight: 200;" x="193.34133275349933" y="0" dx="0em" dy="0.95em" fill="rgb(255, 255, 255)" stroke="none" stroke-width="1px">50</text><text style="text-anchor: middle; visibility: inherit; font-family: Roboto, sans-serif; font-size: 12px; font-weight: 200;" x="225.56488821241592" y="0" dx="0em" dy="0.95em" fill="rgb(255, 255, 255)" stroke="none" stroke-width="1px">60</text><text style="text-anchor: middle; visibility: inherit; font-family: Roboto, sans-serif; font-size: 12px; font-weight: 200;" x="257.78844367133246" y="0" dx="0em" dy="0.95em" fill="rgb(255, 255, 255)" stroke="none" stroke-width="1px">70</text><text style="text-anchor: middle; visibility: hidden; font-family: Roboto, sans-serif; font-size: 12px; font-weight: 200;" x="290.011999130249" y="0" dx="0em" dy="0.95em" fill="rgb(255, 255, 255)" stroke="none" stroke-width="1px">80</text></g><line x1="0" y1="0" x2="290.011999130249" y2="0" fill="rgb(0, 0, 0)" stroke="rgb(204, 204, 204)" stroke-width="1px"></line></g></g></g></g></svg>