<svg viewBox="0 0 330 200" xmlns="http://www.w3.org/2000/svg"><g><g><g><g><g><line x1="39.98800086975098" y1="177.5999994277954" x2="34.98800086975098" y2="177.5999994277954" style="visibility: inherit;" fill="rgb(0, 0, 0)" stroke="rgb(204, 204, 204)" stroke-width="1px"></line><line x1="39.98800086975098" y1="157.86666615804035" x2="34.98800086975098" y2="157.86666615804035" style="visibility: inherit;" fill="rgb(0, 0, 0)" stroke="rgb(204, 204, 204)" stroke-width="1px"></line><line x1="39.98800086975098" y1="138.1333328882853" x2="34.98800086975098" y2="138.1333328882853" style="visibility: inherit;" fill="rgb(0, 0, 0)" stroke="rgb(204, 204, 204)" stroke-width="1px"></line><line x1="39.98800086975098" y1="118.39999961853027" x2="34.98800086975098" y2="118.39999961853027" style="visibility: inherit;" fill="rgb(0, 0, 0)" stroke="rgb(204, 204, 204)" stroke-width="1px"></line><line x1="39.98800086975098" y1="98.66666634877524" x2="34.98800086975098" y2="98.66666634877524" style="visibility: inherit;" fill="rgb(0, 0, 0)" stroke="rgb(204, 204, 204)" stroke-width="1px"></line><line x1="39.98800086975098" y1="78.93333307902017" x2="34.98800086975098" y2="78.93333307902017" style="visibility: inherit;" fill="rgb(0, 0, 0)" stroke="rgb(204, 204, 204)" stroke-width="1px"></line><line x1="39.98800086975098" y1="59.199999809265144" x2="34.98800086975098" y2="59.199999809265144" style="visibility: inherit;" fill="rgb(0, 0, 0)" stroke="rgb(204, 204, 204)" stroke-width="1px"></line><line x1="39.98800086975098" y1="39.466666539510086" x2="34.98800086975098" y2="39.466666539510086" style="visibility: inherit;" fill="rgb(0, 0, 0)" stroke="rgb(204, 204, 204)" stroke-width="1px"></line><line x1="39.98800086975098" y1="19.733333269755036" x2="34.98800086975098" y2="19.733333269755036" style="visibility: inherit;" fill="rgb(0, 0, 0)" stroke="rgb(204, 204, 204)" stroke-width="1px"></line><line x1="39.98800086975098" y1="0" x2="34.98800086975098" y2="0" style="visibility: inherit;" fill="rgb(0, 0, 0)" stroke="rgb(204, 204, 204)" stroke-width="1px"></line></g><g transform="translate(29.988000869750977, 0)"><text style="text-anchor: end; visibility: hidden; font-family: Roboto, sans-serif; font-size: 12px; font-weight: 200;" x="0" y="177.5999994277954" dx="0em" dy="0.3em" fill="rgb(255, 255, 255)" stroke="none" stroke-width="1px">0.1</text><text style="text-anchor: end; visibility: inherit; font-family: Roboto, sans-serif; font-size: 12px; font-weight: 200;" x="0" y="157.86666615804035" dx="0em" dy="0.3em" fill="rgb(255, 255, 255)" stroke="none" stroke-width="1px">0.2</text><text style="text-anchor: end; visibility: hidden; font-family: Roboto, sans-serif; font-size: 12px; font-weight: 200;" x="0" y="138.1333328882853" dx="0em" dy="0.3em" fill="rgb(255, 255, 255)" stroke="none" stroke-width="1px">0.3</text><text style="text-anchor: end; visibility: inherit; font-family: Roboto, sans-serif; font-size: 12px; font-weight: 200;" x="0" y="118.39999961853027" dx="0em" dy="0.3em" fill="rgb(255, 255, 255)" stroke="none" stroke-width="1px">0.4</text><text style="text-anchor: end; visibility: hidden; font-family: Roboto, sans-serif; font-size: 12px; font-weight: 200;" x="0" y="98.66666634877524" dx="0em" dy="0.3em" fill="rgb(255, 255, 255)" stroke="none" stroke-width="1px">0.5</text><text style="text-anchor: end; visibility: inherit; font-family: Roboto, sans-serif; font-size: 12px; font-weight: 200;" x="0" y="78.93333307902017" dx="0em" dy="0.3em" fill="rgb(255, 255, 255)" stroke="none" stroke-width="1px">0.6</text><text style="text-anchor: end; visibility: hidden; font-family: Roboto, sans-serif; font-size: 12px; font-weight: 200;" x="0" y="59.199999809265144" dx="0em" dy="0.3em" fill="rgb(255, 255, 255)" stroke="none" stroke-width="1px">0.7</text><text style="text-anchor: end; visibility: inherit; font-family: Roboto, sans-serif; font-size: 12px; font-weight: 200;" x="0" y="39.466666539510086" dx="0em" dy="0.3em" fill="rgb(255, 255, 255)" stroke="none" stroke-width="1px">0.8</text><text style="text-anchor: end; visibility: hidden; font-family: Roboto, sans-serif; font-size: 12px; font-weight: 200;" x="0" y="19.733333269755036" dx="0em" dy="0.3em" fill="rgb(255, 255, 255)" stroke="none" stroke-width="1px">0.9</text><text style="text-anchor: end; visibility: hidden; font-family: Roboto, sans-serif; font-size: 12px; font-weight: 200;" x="0" y="0" dx="0em" dy="0.3em" fill="rgb(255, 255, 255)" stroke="none" stroke-width="1px">1</text></g><line x1="39.98800086975098" y1="0" x2="39.98800086975098" y2="177.5999994277954" fill="rgb(0, 0, 0)" stroke="rgb(204, 204, 204)" stroke-width="1px"></line></g></g><g transform="translate(39, 0)" clip-path="url(#clip_0)"><clipPath id="clip_0"><rect width="290" height="177"></rect></clipPath><g><g><g><line x1="0" y1="0" x2="0" y2="177.5999994277954" fill="rgb(0, 0, 0)" stroke="rgb(189, 189, 189)" stroke-width="1px" opacity="0.25"></line><line x1="32.22355545891656" y1="0" x2="32.22355545891656" y2="177.5999994277954" fill="rgb(0, 0, 0)" stroke="rgb(189, 189, 189)" stroke-width="1px" opacity="0.25"></line><line x1="64.44711091783311" y1="0" x2="64.44711091783311" y2="177.5999994277954" fill="rgb(0, 0, 0)" stroke="rgb(189, 189, 189)" stroke-width="1px" opacity="0.25"></line><line x1="96.67066637674967" y1="0" x2="96.67066637674967" y2="177.5999994277954" fill="rgb(0, 0, 0)" stroke="rgb(189, 189, 189)" stroke-width="1px" opacity="0.25"></line><line x1="128.89422183566623" y1="0" x2="128.89422183566623" y2="177.5999994277954" fill="rgb(0, 0, 0)" stroke="rgb(189, 189, 189)" stroke-width="1px" opacity="0.25"></line><line x1="161.1177772945828" y1="0" x2="161.1177772945828" y2="177.5999994277954" fill="rgb(0, 0, 0)" stroke="rgb(189, 189, 189)" stroke-width="1px" opacity="0.25"></line><line x1="193.34133275349933" y1="0" x2="193.34133275349933" y2="177.5999994277954" fill="rgb(0, 0, 0)" stroke="rgb(189, 189, 189)" stroke-width="1px" opacity="0.25"></line><line x1="225.56488821241592" y1="0" x2="225.56488821241592" y2="177.5999994277954" fill="rgb(0, 0, 0)" stroke="rgb(189, 189, 189)" stroke-width="1px" opacity="0.25"></line><line x1="257.78844367133246" y1="0" x2="257.78844367133246" y2="177.5999994277954" fill="rgb(0, 0, 0)" stroke="rgb(189, 189, 189)" stroke-width="1px" opacity="0.25"></line><line x1="290.011999130249" y1="0" x2="290.011999130249" y2="177.5999994277954" fill="rgb(0, 0, 0)" stroke="rgb(189, 189, 189)" stroke-width="1px" opacity="0.25"></line></g><g><line x1="0" y1="177.5999994277954" x2="290.011999130249" y2="177.5999994277954" fill="rgb(0, 0, 0)" stroke="rgb(189, 189, 189)" stroke-width="1px" opacity="0.25"></line><line x1="0" y1="157.86666615804035" x2="290.011999130249" y2="157.86666615804035" fill="rgb(0, 0, 0)" stroke="rgb(189, 189, 189)" stroke-width="1px" opacity="0.25"></line><line x1="0" y1="138.1333328882853" x2="290.011999130249" y2="138.1333328882853" fill="rgb(0, 0, 0)" stroke="rgb(189, 189, 189)" stroke-width="1px" opacity="0.25"></line><line x1="0" y1="118.39999961853027" x2="290.011999130249" y2="118.39999961853027" fill="rgb(0, 0, 0)" stroke="rgb(189, 189, 189)" stroke-width="1px" opacity="0.25"></line><line x1="0" y1="98.66666634877524" x2="290.011999130249" y2="98.66666634877524" fill="rgb(0, 0, 0)" stroke="rgb(189, 189, 189)" stroke-width="1px" opacity="0.25"></line><line x1="0" y1="78.93333307902017" x2="290.011999130249" y2="78.93333307902017" fill="rgb(0, 0, 0)" stroke="rgb(189, 189, 189)" stroke-width="1px" opacity="0.25"></line><line x1="0" y1="59.199999809265144" x2="290.011999130249" y2="59.199999809265144" fill="rgb(0, 0, 0)" stroke="rgb(189, 189, 189)" stroke-width="1px" opacity="0.25"></line><line x1="0" y1="39.466666539510086" x2="290.011999130249" y2="39.466666539510086" fill="rgb(0, 0, 0)" stroke="rgb(189, 189, 189)" stroke-width="1px" opacity="0.25"></line><line x1="0" y1="19.733333269755036" x2="290.011999130249" y2="19.733333269755036" fill="rgb(0, 0, 0)" stroke="rgb(189, 189, 189)" stroke-width="1px" opacity="0.25"></line><line x1="0" y1="0" x2="290.011999130249" y2="0" fill="rgb(0, 0, 0)" stroke="rgb(189, 189, 189)" stroke-width="1px" opacity="0.25"></line></g></g></g><g><g><line x1="0" y1="197.33333269755047" x2="290.011999130249" y2="197.33333269755047" fill="rgb(0, 0, 0)" stroke="rgb(153, 153, 153)" stroke-width="1.5px"></line></g></g><g><g><line x1="32.22355545891656" y1="0" x2="32.22355545891656" y2="177.5999994277954" fill="rgb(0, 0, 0)" stroke="rgb(153, 153, 153)" stroke-width="1.5px"></line></g></g><g><g><g><g><g><path style="fill: none;" stroke="rgb(0, 119, 187)" stroke-width="2px" d="M32.22355545891656,173.57380318349396L35.44591100480821,172.33114965864834L38.66826655069987,172.35650993466558L41.89062209659152,164.32700036465005L45.11297764248318,157.51503207914325L48.33533318837483,153.99200392409352L51.55768873426649,151.49549212646693L54.780044280158144,146.281763897071L58.00239982604981,141.5230163771283L61.22475537194146,137.93851763975067L64.44711091783311,128.0592577441794L67.66946646372477,126.06015330958719L70.89182200961642,120.80215384674477L74.11417755550808,114.18949446522899L77.33653310139974,110.82197112458428L80.5588886472914,106.37612657699877L83.78124419318304,103.1128480140825L87.0035997390747,101.79153765287975L90.22595528496636,96.86303437454731L93.44831083085802,95.09911562288295L96.67066637674967,90.30282184475318L99.89302192264132,87.14675486367838L103.11537746853298,85.53149784911747L106.33773301442463,82.29574103498565L109.56008856031629,78.7239354042058L112.78244410620796,76.5808585247866L116.00479965209962,74.30089089943125L119.22715519799127,71.93878838731294L122.44951074388293,70.91917708286364L125.67186628977458,70.74482467807739L128.89422183566623,69.52679555392406L132.11657738155787,67.7620903678783L135.33893292744955,68.01550953103596L138.5612884733412,67.57108731217018L141.78364401923284,66.9863146811708L145.0059995651245,65.20391423361727L148.22835511101616,64.49235819422152L151.45071065690783,62.63388770746465L154.67306620279948,62.15504402596552L157.89542174869112,61.151969386480914L161.1177772945828,60.43082986516746L164.34013284047444,59.48120228616501L167.56248838636608,58.47401169818406L170.78484393225776,57.273223653552364L174.0071994781494,57.02992978049683L177.22955502404108,56.12842011352645L180.45191056993272,55.1898651854147L183.67426611582437,54.07002344942679L186.89662166171604,53.67647279741933L190.11897720760768,52.883633627082894L193.34133275349933,52.64651960165666L196.563688299391,52.186131884040265L199.78604384528265,51.90989925347127L203.0083993911743,51.18745089599876L206.23075493706597,50.47562749195015L209.4531104829576,50.36665275188185L212.67546602884926,49.903618779890216L215.89782157474096,49.22814926874467L219.12017712063258,48.46498334690181L222.34253266652428,48.88191187528752L225.56488821241592,48.416300562007834L228.78724375830757,47.8585793844746L232.00959930419924,47.881830893110184L235.2319548500909,47.8560168854965L238.45431039598253,47.2440547890024L241.6766659418742,46.63828805433554L244.89902148776585,46.39412275192064L248.1213770336575,46.724802524012425L251.34373257954917,46.24720686975147L254.5660881254408,45.881119651604784L257.78844367133246,45.740997146306874L261.01079921722413,45.458099079152845L264.23315476311575,45.48718480283573L267.4555103090074,45.226281847480045L270.6778658548991,45.825273417372756L273.9002214007907,45.46889992899731L277.1225769466824,45.374370574357215L280.34493249257406,45.516477525548446L283.5672880384657,45.323387306697796" fill="none"></path></g><g><path style="fill: none;" stroke="rgb(255, 112, 67)" stroke-width="2px" d="M32.22355545891656,174.21124680339352L35.44591100480821,171.53853276735427L38.66826655069987,168.34827354258977L41.89062209659152,164.6213766639477L45.11297764248318,160.89801289269815L48.33533318837483,154.16410322071502L51.55768873426649,148.2024912657307L54.780044280158144,142.711182111722L58.00239982604981,137.1051165939915L61.22475537194146,132.1669721302336L64.44711091783311,126.64811621371794L67.66946646372477,121.86460938541434L70.89182200961642,118.17466616280959L74.11417755550808,113.3362533659805L77.33653310139974,109.28147075489564L80.5588886472914,104.98958621097573L83.78124419318304,100.12749511514362L87.0035997390747,96.34546786069318L90.22595528496636,93.3206309536677L93.44831083085802,90.08366280329413L96.67066637674967,87.31610709316728L99.89302192264132,84.00472117529742L103.11537746853298,81.6201146963076L106.33773301442463,78.53849012525157L109.56008856031629,75.1381006189578L112.78244410620796,72.71001869237925L116.00479965209962,69.54263462964234L119.22715519799127,66.85655235460067L122.44951074388293,64.46919626275935L125.67186628977458,62.3704666751628L128.89422183566623,59.818380083718935L132.11657738155787,58.07828726001785L135.33893292744955,55.502703749113L138.5612884733412,53.14186246926323L141.78364401923284,51.11871698401289L145.0059995651245,49.26835115937837L148.22835511101616,47.50176125758797L151.45071065690783,46.10367853407868L154.67306620279948,43.613959281116514L157.89542174869112,42.14001959889987L161.1177772945828,40.29098968090121L164.34013284047444,38.684326833935714L167.56248838636608,37.38219563318377L170.78484393225776,35.904772175308736L174.0071994781494,34.29233085935877L177.22955502404108,33.14585809520121L180.45191056993272,32.11984564856325L183.67426611582437,30.778250939275416L186.89662166171604,29.277149376168747L190.11897720760768,28.008521851162033L193.34133275349933,27.07827858967882L196.563688299391,26.29139969794053L199.78604384528265,25.05351079920276L203.0083993911743,23.843360952474434L206.23075493706597,23.06754608427127L209.4531104829576,22.353432362514884L212.67546602884926,21.53711038111765L215.89782157474096,21.057263125271486L219.12017712063258,20.291997036078435L222.34253266652428,19.524541688568977L225.56488821241592,19.004397586904304L228.78724375830757,18.433740392078786L232.00959930419924,17.79299631418183L235.2319548500909,16.96102522594117L238.45431039598253,16.849701026133562L241.6766659418742,16.40499398610426L244.89902148776585,15.800040973910141L248.1213770336575,15.29784021908492L251.34373257954917,14.479378298536243L254.5660881254408,13.89879715886521L257.78844367133246,13.351548634394833L261.01079921722413,13.182320333205483L264.23315476311575,12.682983671156315L267.4555103090074,12.462944433069918L270.6778658548991,11.943062437081313L273.9002214007907,11.591354212313263L277.1225769466824,11.300771223102638L280.34493249257406,11.01702557625034L283.5672880384657,10.518595332954463" fill="none"></path></g></g></g></g><g opacity="0.2"><g><g><g><path style="fill: none;" stroke="rgb(0, 119, 187)" stroke-width="2px" d="M32.22355545891656,173.57380318349396L35.44591100480821,171.58555754374095L38.66826655069987,172.38085579964215L41.89062209659152,154.88429711031173L45.11297764248318,148.62132628558564L48.33533318837483,149.1183876955239L51.55768873426649,147.9254403116721L54.780044280158144,138.68009808682075L58.00239982604981,134.5047881243311L61.22475537194146,132.61595476656575L64.44711091783311,113.32997206096185L67.66946646372477,123.07237569575143L70.89182200961642,112.93232293301125L74.11417755550808,104.28346028107738L77.33653310139974,105.77464451089213L80.5588886472914,99.71049530964554L83.78124419318304,98.21931107983082L87.0035997390747,99.80990759163318L90.22595528496636,89.4710302649177L93.44831083085802,92.45339872454717L96.67066637674967,83.10864421770816L99.89302192264132,82.41275824379461L103.11537746853298,83.10864421770816L106.33773301442463,77.44214414441217L109.56008856031629,73.36625234490175L112.78244410620796,73.36625234490175L116.00479965209962,70.88094529521052L119.22715519799127,68.39563824551931L122.44951074388293,69.38976106539579L125.67186628977458,70.48329616725994L128.89422183566623,67.69975227160577L132.11657738155787,65.11503293992689L135.33893292744955,68.39563824551931L138.5612884733412,66.90445401570457L141.78364401923284,66.10915575980339L145.0059995651245,62.53031360824802L148.22835511101616,63.42502414613686L151.45071065690783,59.8461819945815L154.67306620279948,61.43677850638388L157.89542174869112,59.6473574306062L161.1177772945828,59.349120584643245L164.34013284047444,58.05676091880382L167.56248838636608,56.963225816939676L170.78484393225776,55.47204158712493L174.0071994781494,56.66498897097672L177.22955502404108,54.77615561321139L180.45191056993272,53.782032793334906L183.67426611582437,52.39026084550782L186.89662166171604,53.08614681942136L190.11897720760768,51.69437487159427L193.34133275349933,52.29084856352018L196.563688299391,51.49555030761898L199.78604384528265,51.49555030761898L203.0083993911743,50.10377835979188L206.23075493706597,49.40789238587834L209.4531104829576,50.20319064177954L212.67546602884926,49.20906782190304L215.89782157474096,48.21494500202657L219.12017712063258,47.32023446413773L222.34253266652428,49.507304667865995L225.56488821241592,47.71788359208831L228.78724375830757,47.02199761817477L232.00959930419924,47.91670815606361L235.2319548500909,47.817295874075974L238.45431039598253,46.326111644261225L241.6766659418742,45.72963795233534L244.89902148776585,46.02787479829829L248.1213770336575,47.220822182150066L251.34373257954917,45.530813388360045L254.5660881254408,45.331988824384744L257.78844367133246,45.530813388360045L261.01079921722413,45.03375197842179L264.23315476311575,45.530813388360045L267.4555103090074,44.8349274144465L270.6778658548991,46.72376077221182L273.9002214007907,44.93433969643414L277.1225769466824,45.23257654239709L280.34493249257406,45.72963795233534L283.5672880384657,45.03375197842179" fill="none"></path></g><g><path style="fill: none;" stroke="rgb(255, 112, 67)" stroke-width="2px" d="M32.22355545891656,174.21124680339352L35.44591100480821,169.9349043457307L38.66826655069987,165.28562468681585L41.89062209659152,160.23854593466464L45.11297764248318,156.03678915295475L48.33533318837483,144.84868193688044L51.55768873426649,139.67729078431185L54.780044280158144,134.70480064860936L58.00239982604981,128.8372588775053L61.22475537194146,124.8344031126615L64.44711091783311,118.41988795591939L67.66946646372477,114.71538077587893L70.89182200961642,112.65179963374416L74.11417755550808,106.0881131250962L77.33653310139974,103.20406308301699L80.5588886472914,98.55478636459793L83.78124419318304,92.83641594539971L87.0035997390747,90.67338723532771L90.22595528496636,88.7838363965873L93.44831083085802,85.22850644944431L96.67066637674967,83.16492530730955L99.89302192264132,79.0377512610568L103.11537746853298,78.043252057718L106.33773301442463,73.91608977344845L109.56008856031629,70.03754052803042L112.78244410620796,69.0679061571717L116.00479965209962,64.7915666400047L119.22715519799127,62.82743306580718L122.44951074388293,60.88816432408976L125.67186628977458,59.222373453703945L128.89422183566623,55.99025104285279L132.11657738155787,55.468148370686464L135.33893292744955,51.63932879022865L138.5612884733412,49.600600718590805L141.78364401923284,48.083998843085666L145.0059995651245,46.4928024701402L148.22835511101616,44.85187643223449L151.45071065690783,44.00655446179314L154.67306620279948,39.87938041554041L157.89542174869112,39.92911008050063L161.1177772945828,37.51744480761071L164.34013284047444,36.27433256542038L167.56248838636608,35.42899883299582L170.78484393225776,33.68863698913611L174.0071994781494,31.873668885852833L177.22955502404108,31.42614894914364L180.45191056993272,30.580826978702287L183.67426611582437,28.765858875419017L186.89662166171604,27.02549703155928L190.11897720760768,26.105580563677602L193.34133275349933,25.682913697465324L196.563688299391,25.11108136033879L199.78604384528265,23.19667745110147L203.0083993911743,22.028136182385076L206.23075493706597,21.903823781967738L209.4531104829576,21.28226177988096L212.67546602884926,20.31262740902225L215.89782157474096,20.33749224150237L219.12017712063258,19.144097902289065L222.34253266652428,18.37335866730485L225.56488821241592,18.224181434407388L228.78724375830757,17.577754599840514L232.00959930419924,16.8318801973364L235.2319548500909,15.713068593580227L238.45431039598253,16.682714726422123L241.6766659418742,15.737933426060328L244.89902148776585,14.892611455618976L248.1213770336575,14.54453908684702L251.34373257954917,13.251685417713288L254.5660881254408,13.02792544935869L257.78844367133246,12.530675847689274L261.01079921722413,12.928477881421452L264.23315476311575,11.933978678082621L267.4555103090074,12.132885575940303L270.6778658548991,11.163239443098405L273.9002214007907,11.063791875161167L277.1225769466824,10.86489673928667L280.34493249257406,10.591407105971872L283.5672880384657,9.77094996801062" fill="none"></path></g></g></g></g></g></g><g transform="translate(39, 177)" clip-path="url(#clip_1)"><clipPath id="clip_1"><rect width="290" height="22"></rect></clipPath><g><g><line x1="0" y1="0" x2="0" y2="5" style="visibility: inherit;" fill="rgb(0, 0, 0)" stroke="rgb(204, 204, 204)" stroke-width="1px"></line><line x1="32.22355545891656" y1="0" x2="32.22355545891656" y2="5" style="visibility: inherit;" fill="rgb(0, 0, 0)" stroke="rgb(204, 204, 204)" stroke-width="1px"></line><line x1="64.44711091783311" y1="0" x2="64.44711091783311" y2="5" style="visibility: inherit;" fill="rgb(0, 0, 0)" stroke="rgb(204, 204, 204)" stroke-width="1px"></line><line x1="96.67066637674967" y1="0" x2="96.67066637674967" y2="5" style="visibility: inherit;" fill="rgb(0, 0, 0)" stroke="rgb(204, 204, 204)" stroke-width="1px"></line><line x1="128.89422183566623" y1="0" x2="128.89422183566623" y2="5" style="visibility: inherit;" fill="rgb(0, 0, 0)" stroke="rgb(204, 204, 204)" stroke-width="1px"></line><line x1="161.1177772945828" y1="0" x2="161.1177772945828" y2="5" style="visibility: inherit;" fill="rgb(0, 0, 0)" stroke="rgb(204, 204, 204)" stroke-width="1px"></line><line x1="193.34133275349933" y1="0" x2="193.34133275349933" y2="5" style="visibility: inherit;" fill="rgb(0, 0, 0)" stroke="rgb(204, 204, 204)" stroke-width="1px"></line><line x1="225.56488821241592" y1="0" x2="225.56488821241592" y2="5" style="visibility: inherit;" fill="rgb(0, 0, 0)" stroke="rgb(204, 204, 204)" stroke-width="1px"></line><line x1="257.78844367133246" y1="0" x2="257.78844367133246" y2="5" style="visibility: inherit;" fill="rgb(0, 0, 0)" stroke="rgb(204, 204, 204)" stroke-width="1px"></line><line x1="290.011999130249" y1="0" x2="290.011999130249" y2="5" style="visibility: inherit;" fill="rgb(0, 0, 0)" stroke="rgb(204, 204, 204)" stroke-width="1px"></line></g><g transform="translate(0, 8)"><text style="text-anchor: middle; visibility: hidden; font-family: Roboto, sans-serif; font-size: 12px; font-weight: 200;" x="0" y="0" dx="0em" dy="0.95em" fill="rgb(255, 255, 255)" stroke="none" stroke-width="1px">-10</text><text style="text-anchor: middle; visibility: inherit; font-family: Roboto, sans-serif; font-size: 12px; font-weight: 200;" x="32.22355545891656" y="0" dx="0em" dy="0.95em" fill="rgb(255, 255, 255)" stroke="none" stroke-width="1px">0</text><text style="text-anchor: middle; visibility: inherit; font-family: Roboto, sans-serif; font-size: 12px; font-weight: 200;" x="64.44711091783311" y="0" dx="0em" dy="0.95em" fill="rgb(255, 255, 255)" stroke="none" stroke-width="1px">10</text><text style="text-anchor: middle; visibility: inherit; font-family: Roboto, sans-serif; font-size: 12px; font-weight: 200;" x="96.67066637674967" y="0" dx="0em" dy="0.95em" fill="rgb(255, 255, 255)" stroke="none" stroke-width="1px">20</text><text style="text-anchor: middle; visibility: inherit; font-family: Roboto, sans-serif; font-size: 12px; font-weight: 200;" x="128.89422183566623" y="0" dx="0em" dy="0.95em" fill="rgb(255, 255, 255)" stroke="none" stroke-width="1px">30</text><text style="text-anchor: middle; visibility: inherit; font-family: Roboto, sans-serif; font-size: 12px; font-weight: 200;" x="161.1177772945828" y="0" dx="0em" dy="0.95em" fill="rgb(255, 255, 255)" stroke="none" stroke-width="1px">40</text><text style="text-anchor: middle; visibility: inherit; font-family: Roboto, sans-serif; font-size: 12px; font-weight: 200;" x="193.34133275349933" y="0" dx="0em" dy="0.95em" fill="rgb(255, 255, 255)" stroke="none" stroke-width="1px">50</text><text style="text-anchor: middle; visibility: inherit; font-family: Roboto, sans-serif; font-size: 12px; font-weight: 200;" x="225.56488821241592" y="0" dx="0em" dy="0.95em" fill="rgb(255, 255, 255)" stroke="none" stroke-width="1px">60</text><text style="text-anchor: middle; visibility: inherit; font-family: Roboto, sans-serif; font-size: 12px; font-weight: 200;" x="257.78844367133246" y="0" dx="0em" dy="0.95em" fill="rgb(255, 255, 255)" stroke="none" stroke-width="1px">70</text><text style="text-anchor: middle; visibility: hidden; font-family: Roboto, sans-serif; font-size: 12px; font-weight: 200;" x="290.011999130249" y="0" dx="0em" dy="0.95em" fill="rgb(255, 255, 255)" stroke="none" stroke-width="1px">80</text></g><line x1="0" y1="0" x2="290.011999130249" y2="0" fill="rgb(0, 0, 0)" stroke="rgb(204, 204, 204)" stroke-width="1px"></line></g></g></g></g></svg>